<?xml version="1.0" encoding="UTF-8" standalone="no"?>
<!DOCTYPE svg PUBLIC "-//W3C//DTD SVG 1.1//EN" "http://www.w3.org/Graphics/SVG/1.1/DTD/svg11.dtd">
<svg width="100%" height="100%" viewBox="0 0 982 185" version="1.1" xmlns="http://www.w3.org/2000/svg" xmlns:xlink="http://www.w3.org/1999/xlink" xml:space="preserve" xmlns:serif="http://www.serif.com/" style="fill-rule:evenodd;clip-rule:evenodd;stroke-linejoin:round;stroke-miterlimit:2;">
    <g transform="matrix(1,0,0,1,-11837,0)">
        <g id="Artboard4" transform="matrix(1,0,0,0.751552,-0.95137,527.15)">
            <rect x="11838" y="-701.415" width="981.362" height="245.193" style="fill:none;"/>
            <clipPath id="_clip1">
                <rect x="11838" y="-701.415" width="981.362" height="245.193"/>
            </clipPath>
            <g clip-path="url(#_clip1)">
                <g transform="matrix(0.403816,0,0,0.537309,7588.22,-208.982)">
                    <path d="M12144.4,-538.21C12158,-538.21 12168.3,-541.578 12168.3,-555.723C12168.3,-569.867 12157.9,-572.561 12145.5,-572.561L12127.8,-572.561L12127.8,-513.625L12134.1,-513.625L12134.1,-538.294C12138.1,-538.21 12142.1,-538.21 12144.4,-538.21ZM12134.1,-544.188L12134.1,-566.499L12145.5,-566.499C12154.7,-566.499 12162,-566.415 12162,-555.891C12162,-544.946 12154,-544.188 12145.5,-544.188L12134.1,-544.188Z" style="fill-rule:nonzero;"/>
                    <path d="M12172.6,-534.926C12172.6,-522.381 12181.6,-512.278 12194.3,-512.278C12206.9,-512.278 12215.9,-522.381 12215.9,-534.926C12215.9,-547.471 12206.9,-556.985 12194.3,-556.985C12181.6,-556.985 12172.6,-547.471 12172.6,-534.926ZM12178.5,-534.926C12178.5,-544.188 12183.8,-551.344 12194.3,-551.344C12204.6,-551.344 12210,-544.188 12210,-534.926C12210,-525.665 12204.6,-517.919 12194.3,-517.919C12183.8,-517.919 12178.5,-525.665 12178.5,-534.926Z" style="fill-rule:nonzero;"/>
                    <path d="M12227.3,-555.723L12221,-555.723L12235.7,-513.625L12242.5,-513.625L12253,-544.609C12253.6,-546.377 12253.3,-548.819 12253.3,-550.671L12254.6,-550.671C12254.6,-548.819 12254.3,-546.377 12254.9,-544.609L12265.3,-513.625L12272.2,-513.625L12286.9,-555.723L12280.6,-555.723L12270,-524.655C12269.3,-522.802 12269.6,-520.361 12269.6,-518.424L12268.3,-518.424C12268.3,-520.277 12268.5,-522.802 12267.9,-524.655L12256.8,-555.723L12250.9,-555.723L12240,-524.655C12239.3,-522.802 12239.6,-520.277 12239.6,-518.424L12238.3,-518.424C12238.3,-520.361 12238.5,-522.802 12237.9,-524.655L12227.3,-555.723Z" style="fill-rule:nonzero;"/>
                    <path d="M12314.6,-512.278C12326.1,-512.278 12331.4,-521.287 12332.6,-525.665L12326.6,-525.665C12325.5,-522.129 12321.3,-517.919 12314.2,-517.919C12303.2,-517.919 12298,-526.254 12298,-532.148L12333.5,-532.148C12333.5,-532.822 12333.5,-534.842 12333.5,-535.684C12333.6,-546.966 12325.7,-556.985 12313,-556.985C12300.7,-556.985 12292,-547.471 12292,-534.926C12292,-522.381 12299.9,-512.278 12314.6,-512.278ZM12298,-537.789C12298,-544.356 12304.2,-551.344 12313.1,-551.344C12321.8,-551.344 12327.1,-545.03 12327.1,-537.789L12298,-537.789Z" style="fill-rule:nonzero;"/>
                    <path d="M12351.2,-551.765C12349.9,-550.166 12349.3,-547.556 12348.6,-545.619L12347.4,-546.04C12348.1,-547.977 12349.1,-550.418 12349.1,-552.439L12349.1,-555.723L12343.2,-555.723L12343.2,-513.625L12349.1,-513.625L12349.1,-536.61C12349.1,-548.313 12358.3,-551.344 12367.9,-551.344L12367.9,-556.985C12358.4,-556.985 12354.8,-556.059 12351.2,-551.765Z" style="fill-rule:nonzero;"/>
                    <path d="M12397.7,-512.278C12409.2,-512.278 12414.5,-521.287 12415.7,-525.665L12409.7,-525.665C12408.6,-522.129 12404.4,-517.919 12397.3,-517.919C12386.3,-517.919 12381.1,-526.254 12381.1,-532.148L12416.6,-532.148C12416.6,-532.822 12416.6,-534.842 12416.6,-535.684C12416.7,-546.966 12408.8,-556.985 12396.1,-556.985C12383.8,-556.985 12375.1,-547.471 12375.1,-534.926C12375.1,-522.381 12383,-512.278 12397.7,-512.278ZM12381.1,-537.789C12381.1,-544.356 12387.3,-551.344 12396.2,-551.344C12404.9,-551.344 12410.2,-545.03 12410.2,-537.789L12381.1,-537.789Z" style="fill-rule:nonzero;"/>
                    <path d="M12459.2,-552.439C12459.2,-549.913 12460.3,-546.798 12461.1,-544.44L12459.9,-544.019C12459.1,-546.461 12458.4,-549.745 12456.7,-551.597C12453.5,-555.049 12449.1,-557.07 12443.4,-557.07C12430.7,-557.07 12422.5,-546.966 12422.5,-534.421C12422.5,-521.876 12430.7,-512.362 12443.4,-512.362C12449.1,-512.362 12453.5,-514.299 12456.6,-517.498C12458.4,-519.266 12459.2,-522.634 12459.9,-524.991L12461.1,-524.655C12460.3,-522.213 12459.2,-519.182 12459.2,-516.656L12459.2,-513.625L12465.1,-513.625L12465.1,-574.666L12459.2,-574.666L12459.2,-552.439ZM12443.4,-518.003C12433,-518.003 12428.4,-525.16 12428.4,-534.421C12428.4,-543.683 12433,-551.429 12443.4,-551.429C12453.8,-551.429 12459.2,-543.683 12459.2,-534.421C12459.2,-525.16 12453.8,-518.003 12443.4,-518.003Z" style="fill-rule:nonzero;"/>
                    <path d="M12504.6,-574.666L12498.7,-574.666L12498.7,-513.625L12504.6,-513.625L12504.6,-516.656C12504.6,-519.182 12503.5,-522.213 12502.7,-524.655L12503.9,-525.076C12504.7,-522.634 12505.4,-519.266 12507.2,-517.498C12510.3,-514.299 12514.6,-512.362 12520,-512.362C12532.5,-512.362 12541.3,-521.876 12541.3,-534.421C12541.3,-546.966 12532.5,-557.07 12520,-557.07C12514.5,-557.07 12510.2,-555.049 12507.1,-551.681C12505.4,-549.745 12504.7,-546.461 12504,-544.019L12502.8,-544.44C12503.5,-546.798 12504.6,-549.913 12504.6,-552.439L12504.6,-574.666ZM12520,-518.003C12509.9,-518.003 12504.6,-525.16 12504.6,-534.421C12504.6,-543.683 12509.9,-551.429 12520,-551.429C12530.1,-551.429 12535.4,-543.683 12535.4,-534.421C12535.4,-525.16 12530.1,-518.003 12520,-518.003Z" style="fill-rule:nonzero;"/>
                    <path d="M12552.2,-555.723L12545.9,-555.723L12564.8,-513.625L12561.5,-506.553C12559,-501.08 12557.8,-498.217 12552.7,-498.217L12547.2,-498.217L12547.2,-492.576L12554.4,-492.576C12562,-492.576 12564.6,-498.133 12568,-506.3C12569.2,-508.994 12570.2,-511.099 12571.4,-513.709L12590.2,-555.723L12583.9,-555.723L12569.4,-523.644C12568.6,-521.96 12568.7,-519.519 12568.7,-517.582L12567.4,-517.582C12567.4,-519.435 12567.5,-521.96 12566.8,-523.644L12552.2,-555.723Z" style="fill-rule:nonzero;"/>
                    <path d="M12611.6,-513.709L12619,-513.709L12626.8,-534.926L12650,-534.926L12658.5,-513.709L12665.7,-513.709L12642.7,-572.73L12634,-572.73L12611.6,-513.709ZM12648.4,-540.652L12628.2,-540.652L12637.3,-563.216C12637.9,-564.563 12637.7,-566.584 12637.7,-568.099L12638.9,-568.099C12638.9,-566.584 12638.7,-564.563 12639.3,-563.216L12648.4,-540.652Z" style="fill-rule:nonzero;"/>
                    <path d="M12678.7,-516.909C12678.7,-519.435 12677.6,-522.55 12676.8,-524.907L12678.1,-525.328C12678.8,-522.971 12679.5,-519.603 12681.3,-517.751C12684.4,-514.299 12688.8,-512.278 12694.6,-512.278C12707.2,-512.278 12715.4,-522.381 12715.4,-534.926C12715.4,-547.471 12707.2,-556.985 12694.6,-556.985C12688.8,-556.985 12684.5,-555.049 12681.3,-551.85C12679.5,-550.081 12678.8,-546.714 12678,-544.356L12676.8,-544.693C12677.6,-547.135 12678.7,-550.166 12678.7,-552.691L12678.7,-555.723L12672.8,-555.723L12672.8,-492.576L12678.7,-492.576L12678.7,-516.909ZM12694.6,-551.344C12704.9,-551.344 12709.5,-544.188 12709.5,-534.926C12709.5,-525.665 12704.9,-517.919 12694.6,-517.919C12684.1,-517.919 12678.7,-525.665 12678.7,-534.926C12678.7,-544.188 12684.1,-551.344 12694.6,-551.344Z" style="fill-rule:nonzero;"/>
                    <path d="M12730.9,-516.909C12730.9,-519.435 12729.8,-522.55 12729,-524.907L12730.3,-525.328C12731,-522.971 12731.7,-519.603 12733.5,-517.751C12736.6,-514.299 12741,-512.278 12746.8,-512.278C12759.4,-512.278 12767.6,-522.381 12767.6,-534.926C12767.6,-547.471 12759.4,-556.985 12746.8,-556.985C12741,-556.985 12736.7,-555.049 12733.5,-551.85C12731.7,-550.081 12731,-546.714 12730.2,-544.356L12729,-544.693C12729.8,-547.135 12730.9,-550.166 12730.9,-552.691L12730.9,-555.723L12725.1,-555.723L12725.1,-492.576L12730.9,-492.576L12730.9,-516.909ZM12746.8,-551.344C12757.1,-551.344 12761.7,-544.188 12761.7,-534.926C12761.7,-525.665 12757.1,-517.919 12746.8,-517.919C12736.3,-517.919 12730.9,-525.665 12730.9,-534.926C12730.9,-544.188 12736.3,-551.344 12746.8,-551.344Z" style="fill-rule:nonzero;"/>
                    <path d="M12812.6,-525.328C12812.6,-542.757 12781.1,-535.6 12781.1,-544.777C12781.1,-548.734 12785.9,-551.344 12792.7,-551.344C12799.6,-551.344 12805.4,-549.324 12805.4,-545.619L12811.3,-545.619C12811.3,-553.197 12801.8,-556.985 12792.7,-556.985C12782.1,-556.985 12775,-551.344 12775,-544.946C12775,-527.854 12806.5,-537.368 12806.5,-524.739C12806.5,-519.687 12801.9,-517.919 12795.2,-517.919C12787.8,-517.919 12780.3,-521.876 12780.3,-525.412L12774.3,-525.412C12774.3,-517.414 12785.6,-512.278 12795.1,-512.278C12806.4,-512.278 12812.6,-516.404 12812.6,-525.328Z" style="fill-rule:nonzero;"/>
                    <path d="M12822.3,-565.826L12829,-565.826L12829,-572.561L12822.3,-572.561L12822.3,-565.826ZM12822.8,-513.625L12828.7,-513.625L12828.7,-555.723L12822.8,-555.723L12822.8,-513.625Z" style="fill-rule:nonzero;"/>
                    <path d="M12844.2,-523.813C12844.2,-516.404 12847.3,-513.625 12855.7,-513.625L12860.6,-513.625L12860.6,-519.266L12854.6,-519.266C12851.1,-519.266 12850.2,-520.445 12850.2,-523.813L12850.2,-574.666L12844.2,-574.666L12844.2,-523.813Z" style="fill-rule:nonzero;"/>
                    <path d="M12862.7,-534.926C12862.7,-522.381 12871.7,-512.278 12884.4,-512.278C12897.1,-512.278 12906.1,-522.381 12906.1,-534.926C12906.1,-547.471 12897.1,-556.985 12884.4,-556.985C12871.7,-556.985 12862.7,-547.471 12862.7,-534.926ZM12868.6,-534.926C12868.6,-544.188 12874,-551.344 12884.4,-551.344C12894.8,-551.344 12900.2,-544.188 12900.2,-534.926C12900.2,-525.665 12894.8,-517.919 12884.4,-517.919C12874,-517.919 12868.6,-525.665 12868.6,-534.926Z" style="fill-rule:nonzero;"/>
                    <path d="M12924.7,-553.365C12922.7,-551.681 12921.6,-548.566 12920.6,-546.293L12919.5,-546.798C12920.4,-549.071 12921.6,-552.102 12921.6,-554.628L12921.6,-555.723L12915.8,-555.723L12915.8,-513.625L12921.6,-513.625L12921.6,-538.294C12921.6,-547.556 12928.6,-551.765 12937,-551.765C12944.6,-551.765 12948.2,-547.64 12948.2,-538.294L12948.2,-513.625L12954.1,-513.625L12954.1,-542.504C12954.1,-552.102 12947.4,-556.985 12938.7,-556.985C12932.4,-556.985 12928.8,-556.733 12924.7,-553.365Z" style="fill-rule:nonzero;"/>
                </g>
                <g transform="matrix(1.14254,0,0,1.52024,11649.5,423.046)">
                    <g transform="matrix(4.16667,0,0,4.16667,0,-3674.86)">
                        <path d="M44.677,712.526C44.815,712.425 44.96,712.331 45.11,712.244L57.477,705.104C58.993,704.229 60.86,704.229 62.376,705.104L74.743,712.244C76.259,713.119 77.192,714.736 77.192,716.487L77.192,722.671C77.018,722.385 76.705,722.205 76.36,722.205C76.063,722.205 75.789,722.34 75.607,722.56L75.607,716.487C75.607,715.303 74.976,714.209 73.951,713.618C73.951,713.618 67.654,709.996 63.822,707.812C63.516,707.681 63.144,707.416 62.219,707.416C61.011,707.416 60.951,708.004 60.951,709.709C60.951,717.608 60.945,736.379 60.945,740.325C60.945,740.478 61.022,740.621 61.15,740.705C61.278,740.789 61.44,740.803 61.58,740.743C61.981,740.527 62.47,740.255 62.755,740.097C62.901,740.017 62.992,739.864 62.992,739.697C62.992,737.334 62.992,719.501 62.992,715.066C62.992,714.498 63.452,714.039 64.02,714.039C64.587,714.039 65.047,714.498 65.047,715.066L65.047,737.989C65.047,738.152 65.134,738.302 65.274,738.384C65.415,738.465 65.588,738.465 65.729,738.384L66.867,737.727C67.008,737.645 67.094,737.495 67.094,737.332L67.094,723.051C67.094,722.484 67.554,722.025 68.122,722.025C68.689,722.025 69.149,722.484 69.149,723.051L69.149,735.621C69.149,735.784 69.236,735.934 69.376,736.016C69.517,736.097 69.69,736.097 69.831,736.016L70.969,735.359C71.11,735.277 71.196,735.127 71.196,734.964L71.196,729.557C71.196,728.99 71.656,728.53 72.224,728.53C72.791,728.53 73.251,728.99 73.251,729.557L73.251,732.964C73.251,733.149 73.364,733.316 73.536,733.385C73.708,733.454 73.905,733.413 74.033,733.279C74.622,732.665 75.359,731.791 75.557,731.095C75.736,731.355 76.034,731.517 76.36,731.517C76.699,731.517 77.007,731.343 77.183,731.067C77.084,732.7 76.172,734.185 74.743,735.01L62.376,742.15C60.86,743.026 58.993,743.026 57.477,742.15L45.11,735.01C43.594,734.134 42.66,732.517 42.66,730.767L42.66,719.263C42.775,719.588 43.082,719.806 43.428,719.806C43.78,719.806 44.092,719.579 44.201,719.244L44.246,719.108L44.246,730.767C44.246,731.951 44.877,733.045 45.902,733.637C46.043,733.718 46.216,733.718 46.357,733.637C46.498,733.555 46.584,733.406 46.584,733.243L46.584,726.77C46.584,726.204 47.044,725.743 47.612,725.743C48.179,725.743 48.639,726.204 48.639,726.77L48.639,734.954C48.639,735.117 48.726,735.267 48.866,735.348L50.004,736.005C50.145,736.086 50.318,736.086 50.459,736.005C50.6,735.923 50.686,735.774 50.686,735.611L50.686,723.043C50.686,722.475 51.146,722.016 51.714,722.016C52.281,722.016 52.741,722.475 52.741,723.043L52.741,737.322C52.741,737.485 52.828,737.636 52.968,737.717L54.106,738.374C54.247,738.455 54.42,738.455 54.561,738.374C54.702,738.292 54.788,738.142 54.788,737.979L54.788,729.02C54.788,728.453 55.248,727.992 55.816,727.992C56.383,727.992 56.843,728.453 56.843,729.02L56.843,739.69C56.843,739.853 56.93,740.004 57.07,740.085L58.27,740.777C58.398,740.852 58.556,740.852 58.684,740.777C58.812,740.703 58.89,740.567 58.89,740.419L58.89,709.718C58.89,708.127 58.608,707.445 57.744,707.445C56.69,707.445 56.334,707.676 56.004,707.817C52.179,710.007 45.902,713.618 45.902,713.618C45.831,713.658 45.761,713.702 45.694,713.748C45.216,713.488 44.849,713.053 44.678,712.526L44.677,712.526ZM69.161,717.819L69.161,719.215C69.161,719.782 68.701,720.242 68.133,720.242L68.133,720.242C67.566,720.242 67.106,719.782 67.106,719.215L67.106,717.819C67.106,717.251 67.566,716.791 68.133,716.791L68.133,716.791C68.701,716.791 69.161,717.251 69.161,717.819ZM73.322,722.423L73.322,724.119C73.322,724.687 72.862,725.147 72.295,725.147L72.294,725.147C71.727,725.147 71.267,724.687 71.267,724.119L71.267,722.423C71.267,721.856 71.727,721.396 72.294,721.396L72.295,721.396C72.862,721.396 73.322,721.856 73.322,722.423ZM48.691,721.315L48.691,722.711C48.691,723.279 48.231,723.739 47.663,723.739L47.663,723.739C47.096,723.739 46.636,723.279 46.636,722.711L46.636,721.315C46.636,720.747 47.096,720.288 47.663,720.288L47.663,720.288C48.231,720.288 48.691,720.747 48.691,721.315ZM56.899,721.309L56.899,724.77C56.899,725.337 56.439,725.797 55.872,725.797L55.871,725.797C55.304,725.797 54.844,725.337 54.844,724.77L54.844,721.309C54.844,720.742 55.304,720.283 55.871,720.283L55.872,720.283C56.439,720.283 56.899,720.742 56.899,721.309ZM52.811,715.051L52.811,718.512C52.811,719.079 52.351,719.539 51.784,719.539L51.783,719.539C51.216,719.539 50.756,719.079 50.756,718.512L50.756,715.051C50.756,714.485 51.216,714.025 51.783,714.025L51.784,714.025C52.351,714.025 52.811,714.485 52.811,715.051Z" style="fill:rgb(11,0,255);"/>
                    </g>
                    <g transform="matrix(4.16667,0,0,4.16667,0,-3647.91)">
                        <path d="M76.36,716.714C76.36,716.714 76.565,717.344 76.78,718.004C77.084,718.938 77.816,719.67 78.75,719.975C79.41,720.189 80.04,720.395 80.04,720.395C80.04,720.395 79.41,720.6 78.75,720.814C77.816,721.118 77.084,721.85 76.78,722.784C76.565,723.444 76.36,724.074 76.36,724.074C76.36,724.074 76.155,723.444 75.94,722.784C75.636,721.85 74.904,721.118 73.97,720.814C73.311,720.6 72.68,720.395 72.68,720.395C72.68,720.395 73.311,720.189 73.97,719.975C74.904,719.67 75.636,718.938 75.94,718.004C76.155,717.344 76.36,716.714 76.36,716.714Z"/>
                    </g>
                    <g transform="matrix(4.16667,0,0,4.16667,0,-3745.47)">
                        <path d="M43.428,728.262C43.428,728.262 43.655,728.961 43.887,729.672C44.191,730.605 44.923,731.337 45.856,731.642C46.568,731.873 47.266,732.1 47.266,732.1C47.266,732.1 46.568,732.328 45.856,732.56C44.923,732.863 44.191,733.595 43.887,734.53C43.655,735.24 43.428,735.94 43.428,735.94C43.428,735.94 43.2,735.24 42.969,734.53C42.665,733.595 41.932,732.863 40.999,732.56C40.288,732.328 39.589,732.1 39.589,732.1C39.589,732.1 40.288,731.873 40.999,731.642C41.932,731.337 42.665,730.605 42.969,729.672C43.2,728.961 43.428,728.262 43.428,728.262Z"/>
                    </g>
                    <g transform="matrix(4.16667,0,0,4.16667,0,-3680.43)">
                        <path d="M245.732,724.296C245.732,720.019 242.265,716.552 237.988,716.552L205.174,716.552C200.898,716.552 197.43,720.019 197.43,724.296L197.43,724.297C197.43,728.574 200.898,732.041 205.174,732.041L237.988,732.041C242.265,732.041 245.732,728.574 245.732,724.297L245.732,724.296Z"/>
                    </g>
                    <g transform="matrix(4.16667,0,0,4.16667,0,-3680.13)">
                        <path d="M98.931,719.381C97.858,717.77 95.839,716.418 93.045,716.418C89.821,716.418 86.815,717.813 86.815,720.477C86.815,725.119 96.463,724.582 96.463,727.784C96.463,728.988 95.108,729.847 92.873,729.847C90.895,729.847 89.348,729.181 88.532,727.677L86.536,728.601C87.738,730.77 89.692,732.101 92.658,732.101C96.355,732.101 99.296,730.555 99.296,727.612C99.296,722.411 89.391,722.69 89.391,720.348C89.391,719.144 91.003,718.478 92.637,718.478C94.722,718.478 96.183,719.273 96.956,720.326L98.931,719.381Z" style="fill-rule:nonzero;"/>
                    </g>
                    <g transform="matrix(4.16667,0,0,4.16667,0,-3682.37)">
                        <path d="M104.583,722.348C104.024,722.841 103.788,723.829 103.53,724.517L103.144,724.366C103.402,723.657 103.766,722.777 103.766,722.047L103.766,716.741L101.513,716.741L101.513,732.316L103.766,732.316L103.766,726.558C103.766,724.409 105.336,723.442 107.184,723.442C108.883,723.442 109.7,724.388 109.7,726.558L109.7,732.316L111.953,732.316L111.953,724.946C111.953,722.498 110.258,721.253 108.044,721.253C106.561,721.253 105.508,721.489 104.583,722.348Z" style="fill-rule:nonzero;"/>
                    </g>
                    <g transform="matrix(4.16667,0,0,4.16667,0,-3680.13)">
                        <path d="M114.492,719.102L116.96,719.102L116.96,716.741L114.492,716.741L114.492,719.102ZM114.621,731.779L116.874,731.779L116.874,721.038L114.621,721.038L114.621,731.779Z" style="fill-rule:nonzero;"/>
                    </g>
                    <g transform="matrix(4.16667,0,0,4.16667,0,-3663.57)">
                        <path d="M122.849,717.643C122.226,718.136 121.925,719.167 121.624,719.897L121.238,719.747C121.539,719.018 121.925,718.073 121.925,717.278L121.925,717.064L119.671,717.064L119.671,727.804L121.925,727.804L121.925,722.047C121.925,719.897 123.494,718.93 125.343,718.93C127.041,718.93 127.858,719.876 127.858,722.046L127.858,727.804L130.111,727.804L130.111,720.434C130.111,717.986 128.416,716.741 126.203,716.741C124.741,716.741 123.795,716.87 122.849,717.643Z" style="fill-rule:nonzero;"/>
                    </g>
                    <g transform="matrix(4.16667,0,0,4.16667,0,-3639.84)">
                        <path d="M134.691,711.369L132.006,711.369L137.033,721.854L136.302,723.315C135.679,724.562 135.271,725.271 133.961,725.271L132.35,725.271L132.35,727.481L134.927,727.481C136.775,727.481 137.677,726.065 138.601,723.981C138.923,723.294 139.202,722.757 139.525,722.091L144.595,711.369L141.909,711.369L138.816,718.115C138.494,718.782 138.515,719.705 138.515,720.436L138.085,720.436C138.085,719.705 138.085,718.782 137.785,718.115L134.691,711.369Z" style="fill-rule:nonzero;"/>
                    </g>
                    <g transform="matrix(4.16667,0,0,4.16667,0,-3680.13)">
                        <path d="M153.384,732.101C157.509,732.101 159.916,730.105 160.367,726.881L157.896,726.881C157.488,728.364 156.392,729.783 153.341,729.783C150.354,729.783 148.141,727.505 148.141,724.259C148.141,720.992 150.354,718.714 153.319,718.714C156.284,718.714 157.337,720.154 157.746,721.616L160.195,721.616C159.851,718.714 157.509,716.418 153.298,716.418C148.936,716.418 145.737,719.767 145.737,724.238C145.737,728.73 148.979,732.101 153.384,732.101Z" style="fill-rule:nonzero;"/>
                    </g>
                    <g transform="matrix(4.16667,0,0,4.16667,0,-3662.13)">
                        <path d="M161.832,722.047C161.832,725.443 164.214,727.804 167.761,727.804C171.308,727.804 173.69,725.336 173.69,722.047C173.69,718.78 171.308,716.397 167.761,716.397C164.214,716.397 161.832,718.672 161.832,722.047ZM164.193,722.047C164.193,720.091 165.289,718.565 167.761,718.565C170.233,718.565 171.329,720.091 171.329,722.047C171.329,724.024 170.211,725.637 167.761,725.637C165.289,725.637 164.193,724.024 164.193,722.047Z" style="fill-rule:nonzero;"/>
                    </g>
                    <g transform="matrix(4.16667,0,0,4.16667,0,-3663.57)">
                        <path d="M178.827,717.643C178.203,718.136 177.902,719.167 177.602,719.897L177.215,719.747C177.516,719.018 177.902,718.073 177.902,717.278L177.902,717.064L175.649,717.064L175.649,727.804L177.902,727.804L177.902,722.047C177.902,719.897 179.472,718.93 181.32,718.93C183.019,718.93 183.835,719.876 183.835,722.046L183.835,727.804L186.089,727.804L186.089,720.434C186.089,717.986 184.393,716.741 182.18,716.741C180.718,716.741 179.772,716.87 178.827,717.643Z" style="fill-rule:nonzero;"/>
                    </g>
                    <g transform="matrix(4.16667,0,0,4.16667,0,-3680.4)">
                        <path d="M190.261,720.178L190.261,721.103L188.134,721.103L188.134,722.969L190.261,722.969L190.261,731.779L192.514,731.779L192.514,722.969L195.2,722.969L195.2,721.103L192.514,721.103L192.514,720.178C192.514,719.253 192.923,718.693 193.933,718.693L195.48,718.693L195.48,716.805L193.159,716.805C191.656,716.805 190.325,718.114 190.261,720.178Z" style="fill-rule:nonzero;"/>
                    </g>
                    <g transform="matrix(4.16667,0,0,4.16667,0,-3681.23)">
                        <path d="M209.788,726.943C210.359,726.348 211.43,725.206 212.452,724.1C213.915,722.517 212.797,720.14 210.74,720.14C208.373,720.14 207.648,721.839 207.648,723.053L209.026,723.053C209.026,722.375 209.276,721.459 210.442,721.459C211.525,721.459 212.393,722.601 210.538,724.361C208.86,725.956 208.076,726.836 207.493,727.419L207.493,728.643L213.165,728.643L213.165,727.359L209.966,727.359C209.621,727.359 209.228,727.561 208.907,727.692L208.812,727.478C209.133,727.336 209.55,727.193 209.788,726.943Z" style="fill:white;fill-rule:nonzero;"/>
                    </g>
                    <g transform="matrix(4.16667,0,0,4.16667,0,-3680.43)">
                        <path d="M214.25,724.29C214.25,726.765 215.366,728.643 217.579,728.643C219.792,728.643 220.909,726.765 220.909,724.29C220.909,721.816 219.792,719.95 217.579,719.95C215.366,719.95 214.25,721.816 214.25,724.29ZM215.616,724.29C215.616,722.696 216.175,721.269 217.579,721.269C218.983,721.269 219.542,722.696 219.542,724.29C219.542,725.885 218.983,727.336 217.579,727.336C216.175,727.336 215.616,725.885 215.616,724.29Z" style="fill:white;fill-rule:nonzero;"/>
                    </g>
                    <g transform="matrix(4.16667,0,0,4.16667,0,-3681.23)">
                        <path d="M223.978,726.943C224.55,726.348 225.621,725.206 226.643,724.1C228.105,722.517 226.987,720.14 224.93,720.14C222.563,720.14 221.838,721.839 221.838,723.053L223.217,723.053C223.217,722.375 223.467,721.459 224.633,721.459C225.716,721.459 226.583,722.601 224.728,724.361C223.05,725.956 222.266,726.836 221.684,727.419L221.684,728.643L227.356,728.643L227.356,727.359L224.157,727.359C223.812,727.359 223.419,727.561 223.098,727.692L223.003,727.478C223.324,727.336 223.74,727.193 223.978,726.943Z" style="fill:white;fill-rule:nonzero;"/>
                    </g>
                    <g transform="matrix(4.16667,0,0,4.16667,0,-3680.48)">
                        <path d="M228.833,725.302L228.844,726.454L233.174,726.454L233.174,728.465L234.504,728.465L234.504,726.454L235.67,726.454L235.67,725.148L234.504,725.148L234.504,720.152L234.516,720.14L232.805,720.14L228.833,725.302ZM232.805,722.388C233.031,722.113 233.138,721.673 233.257,721.352L233.483,721.423C233.364,721.756 233.174,722.173 233.174,722.518L233.174,725.148L231.14,725.148C230.795,725.148 230.403,725.361 230.093,725.504L229.986,725.29C230.307,725.148 230.712,724.969 230.926,724.695L232.805,722.388Z" style="fill:white;fill-rule:nonzero;"/>
                    </g>
                </g>
            </g>
        </g>
    </g>
</svg>
